<?xml version="1.0" encoding="iso-8859-1"?>
<!-- Generator: Adobe Illustrator 18.0.0, SVG Export Plug-In . SVG Version: 6.00 Build 0)  -->
<!DOCTYPE svg PUBLIC "-//W3C//DTD SVG 1.1//EN" "http://www.w3.org/Graphics/SVG/1.1/DTD/svg11.dtd">
<svg version="1.1" id="Capa_1" xmlns="http://www.w3.org/2000/svg" xmlns:xlink="http://www.w3.org/1999/xlink" x="0px" y="0px"
	 viewBox="0 0 496.042 496.042" style="enable-background:new 0 0 496.042 496.042;" xml:space="preserve">
<path d="M427.194,17.186c2.16-2.496,2.843-5.949,1.781-9.083c-1.055-3.125-3.687-5.46-6.92-6.132
	c-47.476-9.916-86.32,20.285-98.255,30.932c-37.056-19.388-76.323-21.873-105.799-21.873c-40.886,0-82.135,27.358-92.107,64.236
	c-2.933,10.845-14.042,17.321-24.922,14.519l-0.007-0.002c-7.062-1.821-14.566-0.751-20.851,2.957
	c-6.281,3.712-10.832,9.763-12.664,16.851c-3.793,14.73,5.08,29.742,19.807,33.541l90.309,23.252
	c2.771,16.146,9.092,40.688,22.684,49.202c1.175,0.738,2.668,0.792,3.905,0.153c1.233-0.65,2.037-1.887,2.109-3.281
	c0.395-8.022,4.828-24.128,13.764-34.651c5.314,19.588,21.267,69.682,48.227,81.576c1.905,0.832,4.11,0.599,5.792-0.61
	c1.686-1.215,2.61-3.229,2.423-5.306c-1.157-12.175-1.175-33.895,9.099-49.961c11.676,7.617,22.198,17.175,30.461,30.234
	c23.625,37.341,17.54,98.653,11.657,141.38c-32.395-0.606-76.729,23.53-89.911,48.231c-0.321,0.58-0.234,1.31,0.211,1.796
	c0.453,0.496,1.168,0.642,1.774,0.376c11.391-4.993,24.84-4.967,36.669,1.351c10.208,5.452,17.19,14.511,20.292,24.76
	c1.194,3.92,3.891,7.208,7.504,9.146c3.62,1.927,7.858,2.351,11.781,1.149c10.238-3.116,21.647-2.339,31.855,3.113
	c11.818,6.318,19.329,17.464,21.508,29.717c0.113,0.646,0.632,1.157,1.289,1.263c0.657,0.105,1.303-0.211,1.628-0.81
	c13.668-25.592,8.19-78.554-12.048-104.266c64.597-73.393,85.327-187.739,37.673-280.574c-1.522-2.975-3.183-5.617-4.77-8.42
	C388.93,67.352,412.796,33.752,427.194,17.186z"/>
<g>
</g>
<g>
</g>
<g>
</g>
<g>
</g>
<g>
</g>
<g>
</g>
<g>
</g>
<g>
</g>
<g>
</g>
<g>
</g>
<g>
</g>
<g>
</g>
<g>
</g>
<g>
</g>
<g>
</g>
</svg>
