<?xml version="1.0" encoding="iso-8859-1"?>
<!-- Generator: Adobe Illustrator 19.0.0, SVG Export Plug-In . SVG Version: 6.00 Build 0)  -->
<svg version="1.1" id="Capa_1" xmlns="http://www.w3.org/2000/svg" xmlns:xlink="http://www.w3.org/1999/xlink" x="0px" y="0px"
	 viewBox="0 0 511.999 511.999" style="enable-background:new 0 0 511.999 511.999;" xml:space="preserve">
<g>
	<path style="fill:#FFC88C;" d="M324.135,261.676c0.555,23.297,13.026,102.54,13.026,102.54h-7c-5.608,0-10.808,2.93-13.712,7.727
		l-5.152,8.507c-2.078,3.431,0.392,7.815,4.403,7.815h21.251c5.164,0,10.012-2.487,13.023-6.682l11.049-15.39
		c1.863-2.595,2.833-5.658,2.948-8.85c0.905-24.978,8.368-53.362,12.268-65.272l-32.065-40.081L324.135,261.676z"/>
	<path style="fill:#FFC88C;" d="M207.901,276.039h-48.097l33.724,88.177c-5.95,0-11.411,3.295-14.184,8.56l-4.457,8.46
		c-1.682,3.192,0.633,7.028,4.241,7.028h18.148c6.44,0,12.256-3.854,14.765-9.785l7.603-17.969c1.191-2.814,1.552-5.91,1.042-8.922
		L207.901,276.039z"/>
</g>
<path style="fill:#FAEBC8;" d="M151.215,227.942v61.644c97.443-0.942,157.42-17.715,184.944-27.861v-33.783L151.215,227.942
	L151.215,227.942z"/>
<path style="fill:#FFDC9B;" d="M417.824,219.739v-22.377c0-20.133-13.464-37.862-32.92-43.039c-0.157-0.042-8.163-1.719-8.163-1.719
	c-52.202-10.004-148.854,8.946-173.993,9.519c-33.07,0.754-61.682-18.352-88.885-26.635c-12.072-3.676-24.935-3.88-37.31-1.408
	l-15.808,3.158c-20.705,3.926-27.862,8.685-35.497,21.306c-7.486,12.376-17.75,44.375-17.75,44.375s24.048,32.351,32.065,24.335
	c9.363-9.363,18.704-15.03,30.06-15.46c7.087-0.268,15.679,2.887,23.304-0.923c39.004,57.278-5.267,152.657-5.267,152.657h-2.296
	c-6.128,0-11.719,3.493-14.407,9l-4.121,8.443c-1.489,3.05,0.732,6.606,4.127,6.606H90.86c3.495,0,6.955-1.036,9.685-3.218
	c37.799-30.219,68.315-104.906,77.67-129.635c1.949-5.152,6.369-8.982,11.771-10.061c0.987-0.197,2.048-0.403,3.179-0.614
	l33.102-4.19c26.572-1.816,60.713-0.369,90.492,12.817c5.279,2.338,9.916,6.006,13.23,10.734
	c15.361,21.914,38.55,29.616,65.29,50.518c23.714,18.537,24.582,49.6,24.582,49.6c-6.901,0-13.027,4.416-15.21,10.962l-2.347,7.042
	c-0.991,2.973,1.222,6.044,4.356,6.044h26.416c4.135,0,7.591-3.145,7.981-7.261l6.861-72.547c0.189-2.004-0.359-3.964-1.574-5.568
	C439.719,293.458,417.824,261.411,417.824,219.739z"/>
<g>
	<path style="fill:#FFC88C;" d="M78.498,123.732c0,0-11.863,4.24-18.967,18.321c-1.748,3.465,0.844,7.592,4.719,7.792l17.965,0.926
		c3.6,0.186,6.417-3.061,5.672-6.589C86.58,137.992,83.865,129.099,78.498,123.732z"/>
	<path style="fill:#FFC88C;" d="M106.815,351.07c31.591-60.405,18.465-116.926,9.71-141.836c-2.091-5.95-9.476-8.206-14.422-4.292
		c-2.727,2.158-5.831,4.218-9.177,5.929c39.004,57.278-5.267,152.657-5.267,152.657l0,0
		C95.763,363.001,103.052,358.266,106.815,351.07z"/>
</g>
<path style="fill:#FAEBC8;" d="M39.563,227.254c9.363-9.363,18.704-15.03,30.06-15.46c7.087-0.268,15.679,2.887,23.304-0.923
	c-1.322,0.536-2.789,0.246-4.403-0.574c-6.038-3.068-14.133-13.55-24.412-15.922c-13.026-3.006-34.569,26.276-56.614,8.545
	C7.498,202.919,31.547,235.27,39.563,227.254z"/>
<g>
	<circle style="fill:#B98264;" cx="203.898" cy="215.918" r="12.02"/>
	<circle style="fill:#B98264;" cx="348.188" cy="179.848" r="16.03"/>
	<circle style="fill:#B98264;" cx="292.068" cy="199.888" r="12.02"/>
	<circle style="fill:#B98264;" cx="147.778" cy="175.838" r="12.02"/>
	<circle style="fill:#B98264;" cx="243.978" cy="183.848" r="12.02"/>
	<circle style="fill:#B98264;" cx="155.798" cy="247.978" r="12.02"/>
</g>
<g>
	<circle style="fill:#CB9972;" cx="159.808" cy="211.908" r="8.02"/>
	<circle style="fill:#CB9972;" cx="111.708" cy="179.848" r="8.02"/>
	<circle style="fill:#CB9972;" cx="199.888" cy="179.848" r="8.02"/>
</g>
<g>
	<circle style="fill:#D5A67A;" cx="235.288" cy="219.928" r="4.01"/>
	<circle style="fill:#D5A67A;" cx="268.018" cy="167.818" r="4.01"/>
	<circle style="fill:#D5A67A;" cx="396.278" cy="215.918" r="4.01"/>
	<circle style="fill:#D5A67A;" cx="420.328" cy="296.078" r="4.01"/>
	<circle style="fill:#D5A67A;" cx="348.188" cy="255.998" r="4.01"/>
	<circle style="fill:#D5A67A;" cx="404.628" cy="278.708" r="4.01"/>
	<circle style="fill:#D5A67A;" cx="380.248" cy="199.888" r="4.01"/>
	<circle style="fill:#D5A67A;" cx="375.228" cy="168.668" r="4.01"/>
	<circle style="fill:#D5A67A;" cx="219.928" cy="191.868" r="4.01"/>
	<circle style="fill:#D5A67A;" cx="308.108" cy="223.938" r="4.01"/>
	<circle style="fill:#D5A67A;" cx="179.848" cy="183.848" r="4.01"/>
	<circle style="fill:#D5A67A;" cx="324.138" cy="199.888" r="4.01"/>
	<circle style="fill:#D5A67A;" cx="179.848" cy="207.898" r="4.01"/>
	<circle style="fill:#D5A67A;" cx="194.878" cy="266.688" r="4.01"/>
	<circle style="fill:#D5A67A;" cx="135.758" cy="307.768" r="4.01"/>
	<circle style="fill:#D5A67A;" cx="91.668" cy="175.838" r="4.01"/>
	<circle style="fill:#D5A67A;" cx="99.688" cy="159.808" r="4.01"/>
	<circle style="fill:#D5A67A;" cx="131.748" cy="223.938" r="4.01"/>
	<circle style="fill:#D5A67A;" cx="131.748" cy="199.888" r="4.01"/>
	<circle style="fill:#D5A67A;" cx="266.018" cy="255.328" r="4.01"/>
	<circle style="fill:#D5A67A;" cx="239.628" cy="262.678" r="4.01"/>
	<circle style="fill:#D5A67A;" cx="216.588" cy="257.338" r="4.01"/>
	<circle style="fill:#D5A67A;" cx="316.118" cy="175.838" r="4.01"/>
	<circle style="fill:#D5A67A;" cx="324.138" cy="159.808" r="4.01"/>
	<circle style="fill:#D5A67A;" cx="382.918" cy="283.718" r="4.01"/>
</g>
<g>
	<circle style="fill:#CB9972;" cx="336.158" cy="227.938" r="8.02"/>
	<circle style="fill:#CB9972;" cx="400.288" cy="251.988" r="8.02"/>
	<circle style="fill:#CB9972;" cx="296.078" cy="171.828" r="8.02"/>
	<circle style="fill:#CB9972;" cx="368.228" cy="268.018" r="8.02"/>
	<circle style="fill:#CB9972;" cx="392.268" cy="187.858" r="8.02"/>
	<circle style="fill:#CB9972;" cx="119.728" cy="155.798" r="8.02"/>
	<circle style="fill:#CB9972;" cx="140.428" cy="279.048" r="8.02"/>
	<circle style="fill:#CB9972;" cx="255.998" cy="211.908" r="8.02"/>
</g>
<circle style="fill:#B98264;" cx="368.228" cy="227.938" r="16.03"/>
<path d="M504.899,277.735c-3.659-0.209-6.881,2.292-7.698,5.756c-1.884,0.652-6.484,0.912-10.491-0.049
	c-13.151-3.156-16.931-17.477-20.834-37.363c-0.378-1.929-0.749-3.817-1.13-5.641c-10.699-51.266-33.914-80.013-74.555-91.647
	c-1.097-0.373-9.639-2.405-12.038-2.865c-38.526-7.382-99.72,0.42-140.211,5.586c-15.348,1.957-28.604,3.647-35.364,3.802
	c-20.883,0.453-40.339-7.786-59.156-15.778c-18.557-7.881-36.129-15.315-54.412-14.518c-1.473-2.398-3.228-4.697-5.326-6.705
	c-2.166-2.072-5.358-2.655-8.117-1.482c-0.571,0.243-10.645,4.629-18.019,14.08c-20.809,4.164-30.004,10.039-38.716,24.441
	c-7.852,12.98-18.044,44.625-18.474,45.966c-0.739,2.305-0.321,4.823,1.123,6.766c6.173,8.305,21.836,27.717,33.916,28.601
	c0.326,0.024,0.65,0.036,0.971,0.036c3.252,0,6.241-1.214,8.5-3.473c8.856-8.856,16.579-12.949,25.04-13.269
	c1.727-0.07,3.876,0.18,6.151,0.44c4.247,0.485,9.691,1.099,15.249-0.274c22.553,57.425-1.484,120.448-8.537,136.719
	c-7.915,0.894-15.019,5.822-18.553,13.063l-7.346,15.049c-1.134,2.325-0.991,5.069,0.379,7.264c1.37,2.193,3.774,3.526,6.361,3.526
	h32.636c1.535,0,3.033-0.471,4.292-1.349c25.915-18.08,48.461-56.072,64.215-88.606l18.907,53.063
	c-4.612,2.127-8.492,5.733-10.954,10.407l-8.159,15.489c-1.225,2.324-1.143,5.121,0.214,7.37c1.358,2.25,3.794,3.625,6.421,3.625
	h36.717c3.013,0,5.733-1.803,6.907-4.577l13.566-32.063c0.541-1.279,0.716-2.683,0.507-4.056l-9.652-63.198
	c49.802-4.832,81.718-15.006,97.897-21.503c1.874,23.499,8.438,67.711,11.296,86.414c-7.52,0.567-14.453,4.778-18.388,11.276
	l-9.885,16.322c-1.402,2.315-1.448,5.208-0.119,7.566c1.329,2.359,3.826,3.818,6.534,3.818h38.613c2.416,0,4.684-1.164,6.093-3.126
	l18.704-26.053c0.915-1.274,1.407-2.805,1.407-4.374c0-20.273,2.799-38.747,5.866-51.384c4.365,2.942,8.825,6.112,13.411,9.697
	c14.55,11.373,19.374,28.546,20.952,37.678c-6.523,2.438-11.777,7.71-14.076,14.603l-4.362,13.087
	c-0.763,2.287-0.379,4.802,1.031,6.758c1.409,1.955,3.673,3.114,6.084,3.114h40.081c3.868,0,7.103-2.942,7.467-6.794l7.849-83.001
	c0.19-2.016-0.442-4.022-1.754-5.565c-0.286-0.336-28.607-34.167-28.607-79.978v-22.377c0-4.271-0.526-8.445-1.511-12.456
	c12.513,13.505,20.931,32.424,26.25,57.908c0.369,1.767,0.728,3.597,1.095,5.465c3.596,18.321,8.521,43.413,32.052,49.061
	c2.345,0.563,5.691,1.051,9.287,1.051c4.944,0,10.357-0.924,14.274-3.845c3.159-2.357,5.013-5.77,5.218-9.609
	C512.208,281.488,509.034,277.955,504.899,277.735z M213.733,355.235l-10.801,25.53h-19.319l2.367-4.493
	c1.48-2.811,4.373-4.556,7.548-4.556c2.438,0,4.724-1.185,6.129-3.178c1.405-1.992,1.754-4.543,0.936-6.84l-23.98-67.299
	c9.702-0.235,18.909-0.676,27.632-1.284L213.733,355.235z M356.395,359.781l-15.065,20.984h-21.454l2.989-4.937
	c1.536-2.537,4.333-4.112,7.298-4.112h6.999c2.192,0,4.275-0.96,5.7-2.626c1.426-1.667,2.05-3.874,1.709-6.04
	c-0.101-0.638-8.195-52.215-11.537-83.708c8.9,8.93,19.284,15.519,30.673,22.725c0.093,0.059,0.188,0.119,0.281,0.178
	C360.336,315.387,356.639,336.463,356.395,359.781z M440.467,307.566l-6.922,73.199h-22.852l1.072-3.215
	c1.163-3.489,4.416-5.834,8.095-5.834c2.025,0,3.965-0.819,5.377-2.271s2.177-3.413,2.12-5.438
	c-0.039-1.412-1.268-34.824-27.46-55.299c-10.02-7.832-19.662-13.934-28.171-19.316c-16.698-10.565-29.888-18.91-39.064-35.089
	c-0.01-0.017-0.021-0.022-0.03-0.038c-0.662-1.152-1.63-2.146-2.879-2.833c-34.05-18.728-75.349-20.327-103.998-18.366
	c-4.133,0.282-7.254,3.861-6.971,7.994c0.283,4.132,3.859,7.253,7.994,6.971c22.546-1.542,53.393-0.779,81.047,9.774
	c-20.612,7.698-63.437,19.881-131.114,21.588c4.874-11.524,8.35-20.744,10.164-25.721c1.917-0.427,4.511-0.973,7.664-1.561
	c4.072-0.759,6.758-4.676,5.999-8.748c-0.76-4.072-4.676-6.762-8.748-5.998c-7.735,1.442-12.329,2.646-12.521,2.697
	c-2.417,0.637-4.358,2.438-5.176,4.8c-0.36,1.04-35.988,102.878-80.267,135.903H75.617l2.079-4.259c1.42-2.91,4.43-4.79,7.668-4.79
	h2.295c2.841,0,5.438-1.605,6.708-4.146c0.427-0.854,10.525-21.247,16.736-50.841c8.053-38.37,5.663-74.493-6.89-104.688
	c3.009-3.503,5.754-8.311,8.005-14.877c1.343-3.919-0.744-8.184-4.662-9.527c-3.918-1.344-8.184,0.744-9.527,4.662
	c-5.125,14.948-10.825,14.296-20.267,13.215c-2.73-0.312-5.55-0.628-8.422-0.527c-11.908,0.451-22.691,5.675-33.817,16.41
	c-3.967-1.782-12.402-10.033-19.663-19.214c3.54-10.589,10.729-30.676,15.806-39.069c4.902-8.104,9.04-12.202,19.766-15.342
	c0.805,2.112,2.543,3.84,4.878,4.529c3.969,1.176,8.144-1.094,9.318-5.067c1.921-6.503,7.051-11.1,10.95-13.782
	c3.037,5.281,4.468,11.994,4.805,14.726c0.459,3.806,3.694,6.604,7.437,6.604c0.294,0,0.592-0.018,0.891-0.053
	c4.113-0.487,7.053-4.217,6.566-8.33c-0.076-0.642-0.393-3.047-1.196-6.319c13.378,0.922,27.576,6.934,42.478,13.262
	c19.335,8.211,41.274,17.532,65.361,16.968c7.542-0.172,20.506-1.825,36.92-3.919c39.547-5.044,99.312-12.667,135.491-5.732
	c3.668,0.703,7.177,1.542,10.55,2.506c14.534,5.193,24.443,19.127,24.443,34.886v22.377
	C410.323,264.695,433.336,298.237,440.467,307.566z"/>
<g>
</g>
<g>
</g>
<g>
</g>
<g>
</g>
<g>
</g>
<g>
</g>
<g>
</g>
<g>
</g>
<g>
</g>
<g>
</g>
<g>
</g>
<g>
</g>
<g>
</g>
<g>
</g>
<g>
</g>
</svg>
