<?xml version="1.0" encoding="iso-8859-1"?>
<!-- Generator: Adobe Illustrator 19.1.0, SVG Export Plug-In . SVG Version: 6.00 Build 0)  -->
<svg version="1.1" id="Capa_1" xmlns="http://www.w3.org/2000/svg" xmlns:xlink="http://www.w3.org/1999/xlink" x="0px" y="0px"
	 viewBox="0 0 124.667 124.667" style="enable-background:new 0 0 124.667 124.667;" xml:space="preserve">
<g>
	<path d="M52.239,53.458c-2.171,0-3.938-1.767-3.938-3.938s1.767-3.938,3.938-3.938s3.938,1.767,3.938,3.938
		S54.41,53.458,52.239,53.458z M52.239,48.583c-0.517,0-0.938,0.42-0.938,0.938s0.421,0.938,0.938,0.938s0.938-0.42,0.938-0.938
		S52.756,48.583,52.239,48.583z"/>
	<path d="M62.178,124.667c-0.14,0-0.281-0.02-0.421-0.061c-30.317-8.85-28.68-35.143-28.66-35.408
		c2.529-23.714,18.842-24.793,19.006-24.801c0.667-0.037,1.227,0.344,1.465,0.936c0.239,0.592,0.077,1.271-0.403,1.691
		c-0.098,0.086-9.863,8.861-9.746,23.732c1.551,1.784,8.757,9.419,18.989,10.143c0.827,0.058,1.449,0.775,1.391,1.602
		c-0.059,0.826-0.787,1.451-1.602,1.39c-12.892-0.911-21.106-11.216-21.45-11.654c-0.199-0.255-0.312-0.567-0.319-0.891
		c-0.245-10.543,3.961-18.239,7.189-22.563c-4.262,2.111-10.115,7.411-11.532,20.688c-0.066,0.934-1.414,24.103,26.513,32.255
		c0.796,0.232,1.252,1.065,1.02,1.86C63.426,124.241,62.827,124.667,62.178,124.667z"/>
	<path d="M62.179,108.27c-0.062,0-0.123-0.003-0.185-0.011c-9.973-1.225-15.291-5.652-17.996-9.149
		c-2.979-3.853-3.533-7.44-3.556-7.59c-0.12-0.82,0.447-1.582,1.267-1.702c0.825-0.12,1.578,0.444,1.701,1.261l0,0
		c0.076,0.494,2.075,12.13,18.949,14.204c0.822,0.101,1.407,0.85,1.307,1.672C63.572,107.713,62.926,108.27,62.179,108.27z"/>
	<path d="M59.093,74.645c-0.384,0-0.768-0.146-1.061-0.439l-2.5-2.5c-0.586-0.585-0.586-1.536,0-2.121
		c0.586-0.586,1.535-0.586,2.121,0l2.5,2.5c0.586,0.585,0.586,1.536,0,2.121C59.86,74.499,59.477,74.645,59.093,74.645z"/>
	<path d="M36.55,104.033c-0.157,0-0.317-0.025-0.475-0.078c-0.342-0.114-0.775-0.246-1.286-0.402
		c-4.278-1.307-13.181-4.025-20.37-10.858C5.418,84.141,2.373,72.261,5.368,57.385c0.198-1.115,5.254-28.243,27.096-41.663
		c0.041-0.026,0.085-0.049,0.129-0.071c0.009-0.005,0.979-0.479,2.358-1.296c0.712-0.42,1.633-0.188,2.056,0.526
		c0.422,0.713,0.187,1.633-0.526,2.055c-1.293,0.766-2.244,1.248-2.505,1.378C13.317,31.051,8.363,57.676,8.316,57.944
		c-6.521,32.395,18.972,40.182,27.35,42.74c0.54,0.165,0.998,0.305,1.359,0.426c0.785,0.262,1.21,1.111,0.948,1.897
		C37.764,103.635,37.178,104.033,36.55,104.033z"/>
	<path d="M41.885,72.706c-0.27,0-0.542-0.072-0.788-0.224c-0.704-0.436-0.923-1.36-0.486-2.065l0.192-0.312
		c0.743-1.199,1.385-2.235,1.576-2.809c0.733-2.2,0.417-3.003-0.346-4.944c-0.305-0.773-0.683-1.735-1.044-2.944
		c-1.622-5.442,1.449-9.351,1.581-9.515c2.546-3.254,5.279-5.07,8.11-5.382c3.692-0.408,6.452,1.863,7.634,2.832l0.237,0.193
		c1.87,1.497,3.44,1.266,3.456,1.263c0.805-0.163,1.602,0.364,1.765,1.177c0.163,0.812-0.364,1.603-1.177,1.765
		c-0.294,0.06-2.959,0.506-5.919-1.862l-0.266-0.217c-1.038-0.851-2.972-2.438-5.401-2.169c-1.999,0.22-4.048,1.655-6.089,4.264
		c-0.097,0.124-2.218,2.899-1.057,6.793c0.324,1.087,0.662,1.946,0.96,2.704c0.826,2.1,1.479,3.758,0.4,6.991
		c-0.302,0.908-0.96,1.97-1.871,3.44l-0.192,0.31C42.878,72.454,42.387,72.706,41.885,72.706z"/>
	<path d="M53.302,11.562"/>
	<path d="M35.052,23.895c-0.15,0-0.303-0.022-0.451-0.07c-0.596-0.188-1.012-0.724-1.047-1.347
		c-0.021-0.373-0.432-9.198,6.145-15.75c5.012-4.993,12.609-7.226,22.567-6.636c0.827,0.049,1.457,0.759,1.408,1.586
		c-0.048,0.826-0.75,1.453-1.586,1.409c-9.053-0.541-15.865,1.395-20.246,5.739c-2.807,2.785-4.131,6.127-4.753,8.789
		c1.316-1.48,2.738-2.936,3.691-3.507c0.403-0.222,1.628-0.796,2.675-0.176c0.272,0.162,0.493,0.382,0.655,0.647
		c0.795-1.257,1.838-2.456,3.2-3.347c2.412-1.579,5.315-1.901,8.634-0.963c2.134,0.438,6.046,2.856,6.064,9.039
		c0.002,0.829-0.667,1.502-1.495,1.504c-0.002,0-0.004,0-0.005,0c-0.826,0-1.498-0.668-1.5-1.496
		c-0.016-5.181-3.331-6.037-3.709-6.117c-0.035-0.007-0.088-0.02-0.121-0.03c-2.502-0.718-4.539-0.532-6.225,0.572
		c-2.92,1.912-4.087,6.314-4.29,7.85c-0.103,0.768-0.798,1.329-1.544,1.302c-0.774-0.03-1.398-0.643-1.441-1.416
		c-0.007-0.133-0.134-2.417-0.204-4.124c-1.443,1.342-3.832,4.175-5.244,5.968C35.941,23.691,35.503,23.895,35.052,23.895z"/>
	<path d="M72.425,53.458c-2.171,0-3.938-1.767-3.938-3.938s1.767-3.938,3.938-3.938s3.938,1.767,3.938,3.938
		S74.596,53.458,72.425,53.458z M72.425,48.583c-0.517,0-0.938,0.42-0.938,0.938s0.421,0.938,0.938,0.938s0.938-0.42,0.938-0.938
		S72.942,48.583,72.425,48.583z"/>
	<path d="M62.486,124.667c-0.649,0-1.248-0.425-1.438-1.08c-0.232-0.795,0.224-1.628,1.02-1.86
		c27.927-8.152,26.577-31.321,26.506-32.303c-1.394-13.074-7.213-18.401-11.47-20.564c3.222,4.338,7.377,12.006,7.134,22.488
		c-0.008,0.324-0.12,0.636-0.319,0.891c-0.344,0.438-8.559,10.743-21.45,11.654c-0.793,0.059-1.544-0.564-1.602-1.39
		c-0.059-0.827,0.563-1.544,1.391-1.602c10.268-0.726,17.444-8.357,18.989-10.142c0.117-14.871-9.648-23.647-9.748-23.735
		c-0.479-0.421-0.64-1.1-0.399-1.691c0.239-0.59,0.812-0.966,1.463-0.935c0.164,0.008,16.477,1.087,18.999,24.756
		c0.024,0.31,1.664,26.604-28.653,35.453C62.768,124.647,62.626,124.667,62.486,124.667z"/>
	<path d="M62.485,108.27c-0.747,0-1.394-0.557-1.487-1.317c-0.101-0.822,0.484-1.571,1.307-1.672
		c16.874-2.073,18.873-13.709,18.949-14.204c0.127-0.816,0.885-1.38,1.707-1.256c0.816,0.124,1.38,0.88,1.261,1.698
		c-0.021,0.143-2.326,14.377-21.552,16.74C62.608,108.267,62.547,108.27,62.485,108.27z"/>
	<path d="M65.569,74.645c-0.384,0-0.768-0.146-1.061-0.439c-0.586-0.585-0.586-1.536,0-2.121l2.5-2.5
		c0.586-0.586,1.535-0.586,2.121,0c0.586,0.585,0.586,1.536,0,2.121l-2.5,2.5C66.337,74.499,65.953,74.645,65.569,74.645z"/>
	<path d="M88.114,104.033c-0.628,0-1.214-0.397-1.423-1.026c-0.262-0.786,0.162-1.636,0.948-1.897
		c0.361-0.121,0.819-0.261,1.36-0.426c8.377-2.559,33.87-10.347,27.354-42.708c-0.054-0.3-5.042-26.944-25.666-39.662
		c-0.262-0.13-1.214-0.613-2.506-1.379c-0.712-0.422-0.947-1.343-0.524-2.055c0.424-0.713,1.345-0.947,2.056-0.525
		c1.377,0.817,2.348,1.291,2.356,1.295c0.045,0.021,0.088,0.045,0.13,0.071c21.842,13.42,26.897,40.547,27.102,41.695
		c2.989,14.843-0.056,26.723-9.057,35.277c-7.188,6.833-16.091,9.552-20.369,10.859c-0.512,0.156-0.945,0.289-1.287,0.402
		C88.432,104.008,88.272,104.033,88.114,104.033z"/>
	<path d="M82.777,72.706c-0.503,0-0.994-0.252-1.277-0.712l-0.206-0.333c-0.902-1.459-1.554-2.514-1.854-3.417
		c-1.077-3.232-0.426-4.89,0.398-6.989c0.298-0.758,0.636-1.617,0.96-2.706c1.18-3.95-1.021-6.75-1.042-6.778
		c-2.054-2.624-4.103-4.059-6.102-4.279c-2.425-0.27-4.362,1.317-5.401,2.169l-0.266,0.217c-2.96,2.368-5.625,1.921-5.919,1.862
		c-0.812-0.162-1.34-0.953-1.177-1.765c0.161-0.805,0.934-1.327,1.741-1.182c0.101,0.017,1.635,0.218,3.479-1.258l0.237-0.193
		c1.181-0.969,3.94-3.241,7.634-2.832c2.831,0.312,5.564,2.128,8.123,5.397c0.119,0.148,3.19,4.057,1.566,9.5
		c-0.36,1.209-0.739,2.171-1.043,2.945c-0.762,1.94-1.078,2.744-0.345,4.943c0.19,0.571,0.825,1.598,1.561,2.787l0.207,0.334
		c0.436,0.705,0.217,1.629-0.488,2.064C83.318,72.634,83.047,72.706,82.777,72.706z"/>
	<path d="M71.362,11.562"/>
	<path d="M89.612,23.895c-0.451,0-0.889-0.205-1.179-0.572c-1.402-1.781-3.77-4.59-5.244-5.958
		c-0.071,1.706-0.197,3.981-0.204,4.114c-0.043,0.773-0.667,1.386-1.441,1.416c-0.019,0-0.038,0.001-0.058,0.001
		c-0.749,0-1.387-0.555-1.486-1.303c-0.007-0.053-0.795-5.57-4.3-7.855c-1.686-1.099-3.718-1.286-6.217-0.566
		c-0.045,0.013-0.092,0.024-0.138,0.033c-0.36,0.077-3.676,0.932-3.692,6.114c-0.003,0.827-0.674,1.495-1.5,1.495
		c-0.002,0-0.003,0-0.005,0c-0.828-0.002-1.498-0.676-1.495-1.505c0.02-6.182,3.932-8.6,6.064-9.038
		c3.32-0.94,6.224-0.615,8.636,0.964c1.361,0.892,2.405,2.09,3.2,3.347c0.162-0.265,0.383-0.486,0.655-0.647
		c1.046-0.622,2.271-0.045,2.622,0.146c0.979,0.587,2.419,2.056,3.746,3.543c-0.621-2.662-1.945-6.008-4.755-8.795
		c-4.381-4.345-11.199-6.278-20.246-5.739c-0.848,0.046-1.537-0.582-1.586-1.409c-0.049-0.827,0.581-1.537,1.408-1.586
		c9.971-0.587,17.556,1.643,22.567,6.636c6.576,6.552,6.165,15.378,6.145,15.75c-0.035,0.623-0.451,1.159-1.047,1.347
		C89.915,23.873,89.763,23.895,89.612,23.895z"/>
</g>
<g>
</g>
<g>
</g>
<g>
</g>
<g>
</g>
<g>
</g>
<g>
</g>
<g>
</g>
<g>
</g>
<g>
</g>
<g>
</g>
<g>
</g>
<g>
</g>
<g>
</g>
<g>
</g>
<g>
</g>
</svg>
